<svg width="128" height="128" viewBox="0 0 128 128" fill="none" xmlns="http://www.w3.org/2000/svg">

<g id="nview 2" clip-path="url(#clip0_3311_2)">
<g id="layer2">
<path id="rect1" d="M128 0H0V128H128V0Z" fill="#080808"/>
</g>
<g id="layer1">
<path id="circle7-2" d="M64 124.775C97.5652 124.775 124.775 97.5652 124.775 64C124.775 30.4348 97.5652 3.22479 64 3.22479C30.4348 3.22479 3.22481 30.4348 3.22481 64C3.22481 97.5652 30.4348 124.775 64 124.775Z" fill="black"/>
<path id="circle8-9" d="M64 116.093C92.7702 116.093 116.093 92.7702 116.093 64C116.093 35.2298 92.7702 11.907 64 11.907C35.2298 11.907 11.907 35.2298 11.907 64C11.907 92.7702 35.2298 116.093 64 116.093Z" fill="black"/>
<path id="circle9-1" d="M64 107.411C87.9751 107.411 107.411 87.9751 107.411 64C107.411 40.0248 87.9751 20.5891 64 20.5891C40.0248 20.5891 20.5891 40.0248 20.5891 64C20.5891 87.9751 40.0248 107.411 64 107.411Z" fill="black"/>
<path id="circle10-2" d="M64 98.7287C83.1801 98.7287 98.7287 83.1801 98.7287 64C98.7287 44.8199 83.1801 29.2713 64 29.2713C44.8199 29.2713 29.2713 44.8199 29.2713 64C29.2713 83.1801 44.8199 98.7287 64 98.7287Z" fill="black"/>
<path id="circle11-7" d="M64 83.5349C74.7888 83.5349 83.5349 74.7888 83.5349 64C83.5349 53.2112 74.7888 44.4651 64 44.4651C53.2112 44.4651 44.4651 53.2112 44.4651 64C44.4651 74.7888 53.2112 83.5349 64 83.5349Z" fill="#89B4FA"/>
<path id="circle12-0" d="M64 67.4729C65.918 67.4729 67.4729 65.918 67.4729 64C67.4729 62.082 65.918 60.5271 64 60.5271C62.082 60.5271 60.5271 62.082 60.5271 64C60.5271 65.918 62.082 67.4729 64 67.4729Z" fill="#1E1E2E"/>
<path id="ellipse12-9" opacity="0.12" d="M42.2946 48.8062C51.8846 48.8062 59.6589 45.8908 59.6589 42.2946C59.6589 38.6983 51.8846 35.7829 42.2946 35.7829C32.7045 35.7829 24.9302 38.6983 24.9302 42.2946C24.9302 45.8908 32.7045 48.8062 42.2946 48.8062Z" fill="#CDD6F4"/>
<path id="circle6" opacity="0.9" d="M64 119.729C94.9279 119.729 120 94.6566 120 63.7287C120 32.8007 94.9279 7.72867 64 7.72867C33.0721 7.72867 8 32.8007 8 63.7287C8 94.6566 33.0721 119.729 64 119.729Z" fill="url(#paint0_radial_3311_2)" stroke="#A6E3A1" stroke-width="0.875"/>
<g id="g10" opacity="0.35">
<path id="circle7" d="M64 112.729C91.062 112.729 113 90.7906 113 63.7287C113 36.6667 91.062 14.7287 64 14.7287C36.938 14.7287 15 36.6667 15 63.7287C15 90.7906 36.938 112.729 64 112.729Z" stroke="#CDD6F4" stroke-width="0.7"/>
<path id="circle8" d="M64 105.729C87.196 105.729 106 86.9246 106 63.7287C106 40.5327 87.196 21.7287 64 21.7287C40.804 21.7287 22 40.5327 22 63.7287C22 86.9246 40.804 105.729 64 105.729Z" stroke="#CDD6F4" stroke-width="0.7"/>
<path id="circle9" d="M64 98.7287C83.33 98.7287 99 83.0587 99 63.7287C99 44.3987 83.33 28.7287 64 28.7287C44.67 28.7287 29 44.3987 29 63.7287C29 83.0587 44.67 98.7287 64 98.7287Z" stroke="#CDD6F4" stroke-opacity="0.6" stroke-width="0.7"/>
<path id="circle10" d="M64 91.7287C79.464 91.7287 92 79.1927 92 63.7287C92 48.2647 79.464 35.7287 64 35.7287C48.536 35.7287 36 48.2647 36 63.7287C36 79.1927 48.536 91.7287 64 91.7287Z" stroke="#CDD6F4" stroke-opacity="0.4" stroke-width="0.7"/>
</g>
<path id="circle11" d="M64 79.4787C72.6985 79.4787 79.75 72.4272 79.75 63.7287C79.75 55.0302 72.6985 47.9787 64 47.9787C55.3015 47.9787 48.25 55.0302 48.25 63.7287C48.25 72.4272 55.3015 79.4787 64 79.4787Z" fill="#89B4FA" fill-opacity="0.2"/>
<path id="circle12" d="M64 66.5287C65.5464 66.5287 66.8 65.2751 66.8 63.7287C66.8 62.1823 65.5464 60.9287 64 60.9287C62.4536 60.9287 61.2 62.1823 61.2 63.7287C61.2 65.2751 62.4536 66.5287 64 66.5287Z" fill="#1E1E2E"/>
</g>
<path id="nview" d="M14.9751 74V55.712C15.8871 55.448 17.0631 55.208 18.5031 54.992C19.9431 54.752 21.4551 54.632 23.0391 54.632C25.1991 54.632 26.8791 55.004 28.0791 55.748C29.2791 56.468 30.1191 57.476 30.5991 58.772C31.0791 60.068 31.3191 61.58 31.3191 63.308V74H25.9551V63.956C25.9551 62.804 25.8591 61.88 25.6671 61.184C25.4751 60.488 25.1391 59.984 24.6591 59.672C24.2031 59.36 23.5551 59.204 22.7151 59.204C22.3311 59.204 21.9231 59.228 21.4911 59.276C21.0591 59.3 20.6751 59.336 20.3391 59.384V74H14.9751ZM40.7598 74C40.1598 72.8 39.5358 71.504 38.8878 70.112C38.2638 68.696 37.6398 67.196 37.0158 65.612C36.4158 64.004 35.8158 62.324 35.2158 60.572C34.6158 58.796 34.0278 56.96 33.4518 55.064H39.1398C39.4758 56.312 39.8598 57.692 40.2918 59.204C40.7238 60.692 41.1798 62.168 41.6598 63.632C42.1638 65.096 42.6318 66.404 43.0638 67.556C43.3758 66.692 43.7118 65.732 44.0718 64.676C44.4318 63.62 44.7798 62.54 45.1158 61.436C45.4758 60.308 45.8118 59.204 46.1238 58.124C46.4598 57.02 46.7478 56 46.9878 55.064H52.5318C51.9558 56.96 51.3678 58.796 50.7678 60.572C50.1678 62.324 49.5558 64.004 48.9318 65.612C48.3318 67.196 47.7198 68.696 47.0958 70.112C46.4718 71.504 45.8478 72.8 45.2238 74H40.7598ZM55.4048 74V55.064H60.7688V74H55.4048ZM58.1048 52.04C57.2408 52.04 56.4848 51.764 55.8368 51.212C55.2128 50.636 54.9008 49.856 54.9008 48.872C54.9008 47.888 55.2128 47.12 55.8368 46.568C56.4848 45.992 57.2408 45.704 58.1048 45.704C58.9688 45.704 59.7128 45.992 60.3368 46.568C60.9848 47.12 61.3088 47.888 61.3088 48.872C61.3088 49.856 60.9848 50.636 60.3368 51.212C59.7128 51.764 58.9688 52.04 58.1048 52.04ZM74.919 74.504C72.639 74.504 70.755 74.072 69.267 73.208C67.803 72.344 66.711 71.168 65.991 69.68C65.271 68.192 64.911 66.524 64.911 64.676C64.911 62.444 65.343 60.584 66.207 59.096C67.095 57.584 68.223 56.456 69.591 55.712C70.983 54.944 72.447 54.56 73.983 54.56C75.783 54.56 77.331 54.932 78.627 55.676C79.923 56.396 80.919 57.476 81.615 58.916C82.335 60.356 82.695 62.144 82.695 64.28C82.695 64.592 82.683 64.94 82.659 65.324C82.635 65.684 82.611 66.008 82.587 66.296H70.419C70.539 67.4 71.055 68.276 71.967 68.924C72.879 69.572 74.103 69.896 75.639 69.896C76.623 69.896 77.583 69.812 78.519 69.644C79.479 69.452 80.259 69.224 80.859 68.96L81.579 73.316C81.003 73.604 80.079 73.868 78.807 74.108C77.559 74.372 76.263 74.504 74.919 74.504ZM70.419 62.624H77.511C77.487 62.024 77.355 61.448 77.115 60.896C76.875 60.344 76.503 59.888 75.999 59.528C75.519 59.168 74.871 58.988 74.055 58.988C73.239 58.988 72.579 59.168 72.075 59.528C71.595 59.864 71.223 60.308 70.959 60.86C70.695 61.412 70.515 62 70.419 62.624ZM90.9385 74C90.5065 72.992 90.0385 71.804 89.5345 70.436C89.0305 69.044 88.5025 67.52 87.9505 65.864C87.3985 64.208 86.8465 62.468 86.2945 60.644C85.7425 58.796 85.2025 56.936 84.6745 55.064H90.3265C90.5185 55.928 90.7225 56.876 90.9385 57.908C91.1785 58.916 91.4185 59.96 91.6585 61.04C91.9225 62.12 92.1865 63.212 92.4505 64.316C92.7385 65.396 93.0265 66.44 93.3145 67.448C93.7465 66.032 94.1545 64.592 94.5385 63.128C94.9465 61.664 95.3185 60.248 95.6545 58.88C96.0145 57.488 96.3145 56.216 96.5545 55.064H100.442C100.706 56.192 100.994 57.452 101.306 58.844C101.642 60.212 102.002 61.64 102.386 63.128C102.77 64.592 103.166 66.032 103.574 67.448C103.862 66.44 104.138 65.396 104.402 64.316C104.69 63.212 104.966 62.12 105.23 61.04C105.494 59.96 105.734 58.916 105.95 57.908C106.19 56.876 106.406 55.928 106.598 55.064H112.178C111.65 56.936 111.098 58.784 110.522 60.608C109.97 62.432 109.418 64.172 108.866 65.828C108.314 67.484 107.786 69.008 107.282 70.4C106.778 71.792 106.31 72.992 105.878 74H101.702C101.318 72.776 100.922 71.564 100.514 70.364C100.13 69.164 99.7585 67.964 99.3985 66.764C99.0385 65.564 98.6905 64.352 98.3545 63.128C98.0425 64.352 97.7065 65.564 97.3465 66.764C97.0105 67.964 96.6505 69.164 96.2665 70.364C95.9065 71.564 95.5225 72.776 95.1145 74H90.9385Z" fill="#89B4FA"/>
</g>
<defs>
<radialGradient id="paint0_radial_3311_2" cx="0" cy="0" r="1" gradientUnits="userSpaceOnUse" gradientTransform="translate(64 63.7287) scale(56.4375)">
<stop stop-color="#313244"/>
<stop offset="0.8" stop-color="#181825"/>
<stop offset="1" stop-color="#1E1E2E"/>
</radialGradient>
<clipPath id="clip0_3311_2">
<rect width="128" height="128" fill="white"/>
</clipPath>
</defs>
</svg>
